<svg width="18" height="18" viewBox="0 0 18 18" fill="none" xmlns="http://www.w3.org/2000/svg">
<mask id="path-1-inside-1_4169_183" fill="white">
<path d="M0 8C0 4.22876 0 2.34315 1.17157 1.17157C2.34315 0 4.22876 0 8 0H10C13.7712 0 15.6569 0 16.8284 1.17157C18 2.34315 18 4.22876 18 8V10C18 13.7712 18 15.6569 16.8284 16.8284C15.6569 18 13.7712 18 10 18H8C4.22876 18 2.34315 18 1.17157 16.8284C0 15.6569 0 13.7712 0 10V8Z"/>
</mask>
<path d="M10 5V4H8V5H9H10ZM8 13V14H10V13H9H8ZM13 10H14V8H13V9V10ZM5 8H4V10H5V9V8ZM9 5H8V13H9H10V5H9ZM13 9V8H5V9V10H13V9ZM8 0V2H10V0V-2H8V0ZM18 8H16V10H18H20V8H18ZM10 18V16H8V18V20H10V18ZM0 10H2V8H0H-2V10H0ZM8 18V16C6.05784 16 4.80242 15.9958 3.87741 15.8714C3.00993 15.7548 2.73804 15.5665 2.58579 15.4142L1.17157 16.8284L-0.242641 18.2426C0.776684 19.262 2.03338 19.6595 3.34442 19.8357C4.59792 20.0042 6.17092 20 8 20V18ZM0 10H-2C-2 11.8291 -2.00425 13.4021 -1.83572 14.6556C-1.65946 15.9666 -1.26196 17.2233 -0.242641 18.2426L1.17157 16.8284L2.58579 15.4142C2.43354 15.262 2.24524 14.9901 2.12861 14.1226C2.00425 13.1976 2 11.9422 2 10H0ZM18 10H16C16 11.9422 15.9958 13.1976 15.8714 14.1226C15.7548 14.9901 15.5665 15.262 15.4142 15.4142L16.8284 16.8284L18.2426 18.2426C19.262 17.2233 19.6595 15.9666 19.8357 14.6556C20.0042 13.4021 20 11.8291 20 10H18ZM10 18V20C11.8291 20 13.4021 20.0042 14.6556 19.8357C15.9666 19.6595 17.2233 19.262 18.2426 18.2426L16.8284 16.8284L15.4142 15.4142C15.262 15.5665 14.9901 15.7548 14.1226 15.8714C13.1976 15.9958 11.9422 16 10 16V18ZM10 0V2C11.9422 2 13.1976 2.00425 14.1226 2.12861C14.9901 2.24524 15.262 2.43354 15.4142 2.58579L16.8284 1.17157L18.2426 -0.242641C17.2233 -1.26196 15.9666 -1.65946 14.6556 -1.83572C13.4021 -2.00425 11.8291 -2 10 -2V0ZM18 8H20C20 6.17092 20.0042 4.59792 19.8357 3.34442C19.6595 2.03338 19.262 0.776684 18.2426 -0.242641L16.8284 1.17157L15.4142 2.58579C15.5665 2.73804 15.7548 3.00993 15.8714 3.87741C15.9958 4.80242 16 6.05784 16 8H18ZM8 0V-2C6.17092 -2 4.59792 -2.00425 3.34442 -1.83572C2.03338 -1.65946 0.776684 -1.26197 -0.242641 -0.242641L1.17157 1.17157L2.58579 2.58579C2.73803 2.43354 3.00993 2.24524 3.87741 2.12861C4.80242 2.00425 6.05784 2 8 2V0ZM0 8H2C2 6.05784 2.00425 4.80242 2.12861 3.87741C2.24524 3.00993 2.43354 2.73803 2.58579 2.58579L1.17157 1.17157L-0.242641 -0.242641C-1.26197 0.776684 -1.65946 2.03338 -1.83572 3.34442C-2.00425 4.59792 -2 6.17092 -2 8H0Z" fill="#353535" mask="url(#path-1-inside-1_4169_183)"/>
</svg>
