<svg width="18" height="17" viewBox="0 0 18 17" fill="none" xmlns="http://www.w3.org/2000/svg">
<path d="M7.46863 1.46863L6.76152 2.17574L6.76152 2.17574L7.46863 1.46863ZM9.53137 3.53137L10.2385 2.82426L10.2385 2.82426L9.53137 3.53137ZM6.81923 1.02763L7.05268 0.0552603V0.0552602L6.81923 1.02763ZM7.10828 1.14736L6.58579 2L6.58579 2L7.10828 1.14736ZM16.454 4.10899L16.908 3.21799L16.908 3.21799L16.454 4.10899ZM16.891 4.54601L16 5L16 5L16.891 4.54601ZM1.10899 15.454L0.217987 15.908L0.217987 15.908L1.10899 15.454ZM1.54601 15.891L2 15L2 15L1.54601 15.891ZM16.891 15.454L16 15L16 15L16.891 15.454ZM16.454 15.891L16 15L16 15L16.454 15.891ZM10.1808 3.97237L10.4142 3L10.1808 3.97237ZM9.89172 3.85264L10.4142 3L10.4142 3L9.89172 3.85264ZM1.10899 1.54601L0.217987 1.09202L0.217987 1.09202L1.10899 1.54601ZM1.54601 1.10899L1.09202 0.217987L1.09202 0.217987L1.54601 1.10899ZM9 8L9.70711 7.29289L9 6.58579L8.29289 7.29289L9 8ZM1 14.4H2V2.6H1H0V14.4H1ZM10.6627 4V5H15.4V4V3H10.6627V4ZM17 5.6H16V14.4H17H18V5.6H17ZM2.6 1V2H6.33726V1V0H2.6V1ZM7.46863 1.46863L6.76152 2.17574L8.82426 4.23848L9.53137 3.53137L10.2385 2.82426L8.17574 0.761522L7.46863 1.46863ZM15.4 16V15H13V16V17H15.4V16ZM5 16V15H2.6V16V17H5V16ZM6.33726 1V2C6.46826 2 6.53364 2.00024 6.58113 2.00241C6.61944 2.00416 6.61088 2.00602 6.58579 2L6.81923 1.02763L7.05268 0.0552602C6.79573 -0.00642669 6.53425 0 6.33726 0V1ZM7.46863 1.46863L8.17574 0.761522C8.03644 0.622228 7.85609 0.432787 7.63078 0.294719L7.10828 1.14736L6.58579 2C6.56378 1.98652 6.55905 1.97915 6.58737 2.005C6.62249 2.03704 6.66889 2.0831 6.76152 2.17574L7.46863 1.46863ZM6.81923 1.02763L6.58579 2V2L7.10828 1.14736L7.63078 0.29472C7.45184 0.185062 7.25675 0.104254 7.05268 0.0552603L6.81923 1.02763ZM15.4 4V5C15.6965 5 15.8588 5.00078 15.9754 5.0103C16.0803 5.01887 16.0575 5.0293 16 5L16.454 4.10899L16.908 3.21799C16.6366 3.07969 16.3668 3.03562 16.1382 3.01695C15.9213 2.99922 15.6635 3 15.4 3V4ZM17 5.6H18C18 5.33647 18.0008 5.07869 17.9831 4.86177C17.9644 4.63318 17.9203 4.36344 17.782 4.09202L16.891 4.54601L16 5C15.9707 4.94249 15.9811 4.91972 15.9897 5.02463C15.9992 5.14122 16 5.30347 16 5.6H17ZM16.454 4.10899L16 5L16 5L16.891 4.54601L17.782 4.09202C17.5903 3.71569 17.2843 3.40973 16.908 3.21799L16.454 4.10899ZM1 14.4H0C0 14.6635 -0.000777721 14.9213 0.0169452 15.1382C0.0356221 15.3668 0.0796896 15.6366 0.217987 15.908L1.10899 15.454L2 15C2.0293 15.0575 2.01887 15.0803 2.0103 14.9754C2.00078 14.8588 2 14.6965 2 14.4H1ZM2.6 16V15C2.30347 15 2.14122 14.9992 2.02463 14.9897C1.91972 14.9811 1.94249 14.9707 2 15L1.54601 15.891L1.09202 16.782C1.36344 16.9203 1.63318 16.9644 1.86177 16.9831C2.07869 17.0008 2.33647 17 2.6 17V16ZM1.10899 15.454L0.217987 15.908C0.409734 16.2843 0.715695 16.5903 1.09202 16.782L1.54601 15.891L2 15L2 15L1.10899 15.454ZM17 14.4H16C16 14.6965 15.9992 14.8588 15.9897 14.9754C15.9811 15.0803 15.9707 15.0575 16 15L16.891 15.454L17.782 15.908C17.9203 15.6366 17.9644 15.3668 17.9831 15.1382C18.0008 14.9213 18 14.6635 18 14.4H17ZM15.4 16V17C15.6635 17 15.9213 17.0008 16.1382 16.9831C16.3668 16.9644 16.6366 16.9203 16.908 16.782L16.454 15.891L16 15C16.0575 14.9707 16.0803 14.9811 15.9754 14.9897C15.8588 14.9992 15.6965 15 15.4 15V16ZM16.891 15.454L16 15L16 15L16.454 15.891L16.908 16.782C17.2843 16.5903 17.5903 16.2843 17.782 15.908L16.891 15.454ZM10.6627 4V3C10.5317 3 10.4664 2.99976 10.4189 2.99759C10.3806 2.99584 10.3891 2.99398 10.4142 3L10.1808 3.97237L9.94732 4.94474C10.2043 5.00643 10.4657 5 10.6627 5V4ZM9.53137 3.53137L8.82426 4.23848C8.96355 4.37777 9.14391 4.56721 9.36922 4.70528L9.89172 3.85264L10.4142 3C10.4362 3.01348 10.441 3.02086 10.4126 2.995C10.3775 2.96296 10.3311 2.91689 10.2385 2.82426L9.53137 3.53137ZM10.1808 3.97237L10.4142 3L10.4142 3L9.89172 3.85264L9.36922 4.70528C9.54816 4.81494 9.74325 4.89575 9.94732 4.94474L10.1808 3.97237ZM1 2.6H2C2 2.30347 2.00078 2.14122 2.0103 2.02463C2.01887 1.91972 2.0293 1.94249 2 2L1.10899 1.54601L0.217987 1.09202C0.0796896 1.36344 0.0356221 1.63318 0.0169453 1.86177C-0.000777721 2.07869 0 2.33647 0 2.6H1ZM2.6 1V0C2.33647 0 2.07869 -0.000777721 1.86177 0.0169453C1.63318 0.0356221 1.36344 0.0796896 1.09202 0.217987L1.54601 1.10899L2 2C1.94249 2.0293 1.91972 2.01887 2.02463 2.0103C2.14122 2.00078 2.30347 2 2.6 2V1ZM1.10899 1.54601L2 2L1.54601 1.10899L1.09202 0.217987C0.715695 0.409734 0.409734 0.715695 0.217987 1.09202L1.10899 1.54601ZM9 8L8.29289 7.29289L5.29289 10.2929L6 11L6.70711 11.7071L9.70711 8.70711L9 8ZM9 8L8.29289 8.70711L11.2929 11.7071L12 11L12.7071 10.2929L9.70711 7.29289L9 8ZM9 15H10V8H9H8V15H9Z" fill="#414141"/>
</svg>
