<svg width="32" height="36" viewBox="0 0 32 36" fill="none" xmlns="http://www.w3.org/2000/svg">
<path d="M5.87593 14.2479L7.61554 14.4383L7.61554 14.4383L5.87593 14.2479ZM5.86494 14.3474L7.60387 14.544L5.86494 14.3474ZM3.98857 19.9248L5.49515 20.8151L5.49515 20.8151L3.98857 19.9248ZM4.03924 19.8389L5.549 20.7238L4.03924 19.8389ZM25.6241 14.2479L27.3637 14.0575L27.3637 14.0575L25.6241 14.2479ZM25.6351 14.3474L23.8961 14.544L25.6351 14.3474ZM27.5114 19.9248L29.018 19.0344L29.018 19.0344L27.5114 19.9248ZM27.4608 19.8389L25.951 20.7238L27.4608 19.8389ZM2.35141 25.5291L1.21816 26.8626L2.35141 25.5291ZM3.00518 21.5888L1.49859 20.6985L1.49859 20.6985L3.00518 21.5888ZM1.76289 24.4738L0.0336525 24.7425L1.76289 24.4738ZM29.1486 25.5291L30.2818 26.8626L29.1486 25.5291ZM28.4948 21.5888L26.9882 22.4792L26.9882 22.4792L28.4948 21.5888ZM29.7371 24.4738L31.4663 24.7425L29.7371 24.4738ZM25.1957 10.3335L23.4561 10.5239L23.4561 10.5239L25.1957 10.3335ZM6.30431 10.3335L4.56469 10.1432L4.56469 10.1432L6.30431 10.3335ZM9.80129 26.8409C9.80129 25.8744 9.01778 25.0909 8.05129 25.0909C7.08479 25.0909 6.30129 25.8744 6.30129 26.8409H8.05129H9.80129ZM14.8563 33.75L14.8563 32L14.8563 33.75ZM23.4114 26.8409C23.4114 25.8744 22.6279 25.0909 21.6614 25.0909C20.6949 25.0909 19.9114 25.8744 19.9114 26.8409L21.6614 26.8409L23.4114 26.8409ZM26.0729 25.9318V24.1818H5.42711V25.9318V27.6818H26.0729V25.9318ZM25.1957 10.3335L23.4561 10.5239L23.8845 14.4383L25.6241 14.2479L27.3637 14.0575L26.9353 10.1432L25.1957 10.3335ZM5.87593 14.2479L7.61554 14.4383L8.04392 10.5239L6.30431 10.3335L4.56469 10.1432L4.13631 14.0575L5.87593 14.2479ZM3.00518 21.5888L4.51176 22.4792L5.49515 20.8151L3.98857 19.9248L2.48198 19.0344L1.49859 20.6985L3.00518 21.5888ZM27.5114 19.9248L26.0049 20.8151L26.9882 22.4792L28.4948 21.5888L30.0014 20.6985L29.018 19.0344L27.5114 19.9248ZM5.87593 14.2479L4.13631 14.0575C4.13072 14.1086 4.12838 14.13 4.12602 14.1509L5.86494 14.3474L7.60387 14.544C7.60709 14.5155 7.61021 14.487 7.61554 14.4383L5.87593 14.2479ZM3.98857 19.9248L5.49515 20.8151C5.51997 20.7731 5.53454 20.7485 5.549 20.7238L4.03924 19.8389L2.52949 18.9539C2.51892 18.9719 2.50805 18.9903 2.48198 19.0344L3.98857 19.9248ZM5.86494 14.3474L4.12602 14.1509C3.934 15.8498 3.38945 17.4868 2.52949 18.9539L4.03924 19.8389L5.549 20.7238C6.65719 18.8332 7.35714 16.7269 7.60387 14.544L5.86494 14.3474ZM25.6241 14.2479L23.8845 14.4383C23.8898 14.487 23.8929 14.5155 23.8961 14.544L25.6351 14.3474L27.374 14.1509C27.3716 14.13 27.3693 14.1086 27.3637 14.0575L25.6241 14.2479ZM27.5114 19.9248L29.018 19.0344C28.9919 18.9903 28.9811 18.9719 28.9705 18.9539L27.4608 19.8389L25.951 20.7238C25.9655 20.7485 25.9801 20.7732 26.0049 20.8151L27.5114 19.9248ZM25.6351 14.3474L23.8961 14.544C24.1429 16.7269 24.8428 18.8332 25.951 20.7238L27.4608 19.8389L28.9705 18.9539C28.1106 17.4868 27.566 15.8498 27.374 14.1509L25.6351 14.3474ZM5.42711 25.9318V24.1818C4.5211 24.1818 3.97717 24.1796 3.59437 24.1405C3.20318 24.1006 3.30839 24.0458 3.48465 24.1956L2.35141 25.5291L1.21816 26.8626C1.86835 27.4151 2.64416 27.5617 3.23871 27.6224C3.84165 27.684 4.59861 27.6818 5.42711 27.6818V25.9318ZM3.00518 21.5888L1.49859 20.6985C1.07161 21.421 0.682272 22.0757 0.425746 22.6287C0.17307 23.1734 -0.0958619 23.9091 0.0336525 24.7425L1.76289 24.4738L3.49214 24.205C3.52533 24.4186 3.43133 24.4668 3.60078 24.1015C3.76637 23.7446 4.04633 23.2667 4.51176 22.4792L3.00518 21.5888ZM2.35141 25.5291L3.48465 24.1956C3.49227 24.202 3.49235 24.2064 3.49214 24.205L1.76289 24.4738L0.0336525 24.7425C0.161626 25.566 0.579838 26.3201 1.21816 26.8626L2.35141 25.5291ZM26.0729 25.9318V27.6818C26.9014 27.6818 27.6584 27.684 28.2613 27.6224C28.8558 27.5617 29.6316 27.4151 30.2818 26.8626L29.1486 25.5291L28.0153 24.1956C28.1916 24.0458 28.2968 24.1006 27.9056 24.1405C27.5228 24.1796 26.9789 24.1818 26.0729 24.1818V25.9318ZM28.4948 21.5888L26.9882 22.4792C27.4537 23.2667 27.7336 23.7446 27.8992 24.1015C28.0687 24.4668 27.9747 24.4186 28.0079 24.205L29.7371 24.4738L31.4663 24.7425C31.5959 23.9091 31.3269 23.1734 31.0743 22.6287C30.8177 22.0757 30.4284 21.421 30.0014 20.6985L28.4948 21.5888ZM29.1486 25.5291L30.2818 26.8626C30.9202 26.3201 31.3384 25.566 31.4663 24.7425L29.7371 24.4738L28.0079 24.205C28.0076 24.2064 28.0077 24.202 28.0153 24.1956L29.1486 25.5291ZM15.75 1.75V3.5C19.6789 3.5 23.0161 6.50381 23.4561 10.5239L25.1957 10.3335L26.9353 10.1432C26.3057 4.39003 21.5065 0 15.75 0V1.75ZM15.75 1.75V0C9.99354 0 5.19431 4.39003 4.56469 10.1432L6.30431 10.3335L8.04392 10.5239C8.48387 6.5038 11.8211 3.5 15.75 3.5V1.75ZM8.05129 26.8409H6.30129C6.30129 27.9744 6.52115 29.0974 6.94895 30.146L8.56929 29.4849L10.1896 28.8238C9.93346 28.1959 9.80129 27.5221 9.80129 26.8409H8.05129ZM8.56929 29.4849L6.94895 30.146C7.37677 31.1946 8.00453 32.1491 8.79765 32.9544L10.0444 31.7264L11.2912 30.4984C10.8205 30.0205 10.4458 29.4517 10.1896 28.8238L8.56929 29.4849ZM10.0444 31.7264L8.79765 32.9544C9.59083 33.7597 10.5339 34.3999 11.5738 34.8372L12.2522 33.2241L12.9306 31.6109C12.3192 31.3538 11.7619 30.9762 11.2912 30.4984L10.0444 31.7264ZM12.2522 33.2241L11.5738 34.8372C12.6137 35.2746 13.7292 35.5 14.8563 35.5L14.8563 33.75L14.8563 32C14.1962 32 13.5419 31.868 12.9306 31.6109L12.2522 33.2241ZM14.8563 33.75L14.8563 35.5C15.9835 35.5 17.099 35.2746 18.1389 34.8372L17.4605 33.2241L16.7821 31.6109C16.1708 31.868 15.5165 32 14.8563 32L14.8563 33.75ZM17.4605 33.2241L18.1389 34.8372C19.1788 34.3999 20.1219 33.7597 20.915 32.9544L19.6683 31.7264L18.4215 30.4984C17.9508 30.9762 17.3935 31.3538 16.7821 31.6109L17.4605 33.2241ZM19.6683 31.7264L20.915 32.9544C21.7082 32.1491 22.3359 31.1946 22.7637 30.146L21.1434 29.4849L19.5231 28.8238C19.2669 29.4517 18.8922 30.0205 18.4215 30.4984L19.6683 31.7264ZM21.1434 29.4849L22.7637 30.146C23.1915 29.0974 23.4114 27.9744 23.4114 26.8409L21.6614 26.8409L19.9114 26.8409C19.9114 27.5221 19.7792 28.1959 19.5231 28.8238L21.1434 29.4849Z" fill="white"/>
</svg>
