<svg width="33" height="33" viewBox="0 0 33 33" fill="none" xmlns="http://www.w3.org/2000/svg">
<path d="M16.5 2.625C18.1532 2.62503 19.7118 3.06651 21.0605 3.83984C20.2842 4.49002 19.6817 5.34111 19.334 6.31348C18.4821 5.87318 17.5175 5.62503 16.5 5.625C13.3504 5.625 10.7043 7.99367 10.3564 11.124L10.0107 14.2393C9.93708 14.9022 9.89166 15.3203 9.80957 15.7334C9.64965 16.5379 9.38578 17.3188 9.02539 18.0557C8.84041 18.4338 8.62329 18.7935 8.28027 19.3652L7.22852 21.1182C7.05371 21.4095 6.90896 21.6536 6.78613 21.8672C7.03277 21.8718 7.31693 21.875 7.65723 21.875H25.3428C25.6826 21.875 25.9665 21.8718 26.2129 21.8672C26.0901 21.6537 25.9462 21.4093 25.7715 21.1182L24.7197 19.3652C24.3767 18.7935 24.1596 18.4338 23.9746 18.0557C23.6142 17.3188 23.3504 16.5379 23.1904 15.7334C23.1083 15.3203 23.0629 14.9022 22.9893 14.2393L22.9297 13.7041C23.5019 13.895 24.1137 14 24.75 14C25.1676 14 25.5745 13.9537 25.9668 13.8691L25.9717 13.9082C26.0507 14.6198 26.0815 14.89 26.1328 15.1484C26.2422 15.6989 26.4223 16.2331 26.6689 16.7373C26.7847 16.9739 26.9237 17.2075 27.292 17.8213L28.3438 19.5742C28.7205 20.2021 29.0951 20.8192 29.3135 21.3457C29.5359 21.8822 29.7746 22.7401 29.2842 23.6064C28.7936 24.4729 27.9349 24.7097 27.3604 24.7949C26.7966 24.8785 26.0749 24.875 25.3428 24.875H7.65723C6.92511 24.875 6.20343 24.8785 5.63965 24.7949C5.06514 24.7097 4.20643 24.4729 3.71582 23.6064C3.22535 22.74 3.46404 21.8822 3.68652 21.3457C3.9049 20.8192 4.27951 20.2021 4.65625 19.5742L5.70801 17.8213C6.07627 17.2075 6.21531 16.9739 6.33105 16.7373C6.57764 16.2331 6.75777 15.6989 6.86719 15.1484C6.91854 14.89 6.94926 14.6197 7.02832 13.9082L7.375 10.792C7.89178 6.1425 11.8218 2.625 16.5 2.625ZM23.4609 5.82129C24.6309 7.18066 25.4137 8.89131 25.625 10.792L25.6309 10.8525C25.354 10.9462 25.0585 11 24.75 11C23.2312 11 22 9.76878 22 8.25C22 7.19715 22.592 6.2834 23.4609 5.82129Z" fill="black"/>
<path d="M12.5156 24.2889C12.7506 25.6046 13.2685 26.7672 13.9889 27.5964C14.7093 28.4256 15.5919 28.875 16.5 28.875C17.4081 28.875 18.2907 28.4256 19.0111 27.5964C19.7315 26.7672 20.2494 25.6046 20.4844 24.2889" stroke="black" stroke-width="3" stroke-linecap="round"/>
<circle cx="24.75" cy="8.25" r="3.25" fill="black" stroke="black"/>
</svg>
