<svg width="33" height="33" viewBox="0 0 33 33" fill="none" xmlns="http://www.w3.org/2000/svg">
<path d="M16.5 23.1667V20.8019C16.5 19.2282 17.507 17.831 19 17.3333C20.493 16.8357 21.5 15.4385 21.5 13.8648V13.0095C21.5 10.3349 19.3318 8.16667 16.6572 8.16667H16.5C13.7386 8.16667 11.5 10.4052 11.5 13.1667M31.5 16.5C31.5 24.7843 24.7843 31.5 16.5 31.5C8.21573 31.5 1.5 24.7843 1.5 16.5C1.5 8.21573 8.21573 1.5 16.5 1.5C24.7843 1.5 31.5 8.21573 31.5 16.5ZM17.3333 26.5C17.3333 26.9602 16.9602 27.3333 16.5 27.3333C16.0398 27.3333 15.6667 26.9602 15.6667 26.5C15.6667 26.0398 16.0398 25.6667 16.5 25.6667C16.9602 25.6667 17.3333 26.0398 17.3333 26.5Z" stroke="white" stroke-width="3"/>
</svg>
