<svg width="19" height="24" viewBox="0 0 19 24" fill="none" xmlns="http://www.w3.org/2000/svg">
<path d="M9.5 19.266C8.86215 19.266 8.23055 19.1372 7.64125 18.887C7.05196 18.6368 6.51651 18.2701 6.06548 17.8078C5.61445 17.3454 5.25668 16.7966 5.01259 16.1925C4.76849 15.5885 4.64286 14.9411 4.64286 14.2873M18 14.9985C18 19.4176 14.1944 23 9.5 23C4.80558 23 1 19.4176 1 14.9985C1 9.37171 6.63879 3.35629 8.73094 1.31805C9.16622 0.893985 9.83378 0.893984 10.2691 1.31805C12.3612 3.35629 18 9.3717 18 14.9985Z" stroke="white" stroke-width="2" stroke-linecap="round"/>
</svg>
